<mxfile host="app.diagrams.net" modified="2021-01-07T07:19:20.023Z" agent="5.0 (Macintosh; Intel Mac OS X 11_1_0) AppleWebKit/537.36 (KHTML, like Gecko) Chrome/87.0.4280.88 Safari/537.36" etag="sQXMRnvAXJ-FlJ3BP16R" version="14.1.8" type="github">
  <diagram id="Y63JyHKL3_SBLwK8VpRc" name="Page-1">
    <mxGraphModel dx="694" dy="436" grid="1" gridSize="10" guides="1" tooltips="1" connect="1" arrows="1" fold="1" page="1" pageScale="1" pageWidth="827" pageHeight="1169" math="0" shadow="0">
      <root>
        <mxCell id="0" />
        <mxCell id="1" parent="0" />
        <mxCell id="__-V4fkEj-imbrIXBcy4-1" value="Actor" style="shape=umlActor;verticalLabelPosition=bottom;verticalAlign=top;html=1;outlineConnect=0;" vertex="1" parent="1">
          <mxGeometry x="100" y="300" width="30" height="60" as="geometry" />
        </mxCell>
        <mxCell id="__-V4fkEj-imbrIXBcy4-2" value="" style="ellipse;shape=cloud;whiteSpace=wrap;html=1;" vertex="1" parent="1">
          <mxGeometry x="240" y="110" width="120" height="80" as="geometry" />
        </mxCell>
        <mxCell id="__-V4fkEj-imbrIXBcy4-3" value="" style="curved=1;endArrow=classic;html=1;entryX=0.13;entryY=0.77;entryDx=0;entryDy=0;entryPerimeter=0;" edge="1" parent="1" target="__-V4fkEj-imbrIXBcy4-2">
          <mxGeometry width="50" height="50" relative="1" as="geometry">
            <mxPoint x="160" y="330" as="sourcePoint" />
            <mxPoint x="250" y="250" as="targetPoint" />
            <Array as="points">
              <mxPoint x="250" y="300" />
              <mxPoint x="200" y="250" />
            </Array>
          </mxGeometry>
        </mxCell>
        <mxCell id="__-V4fkEj-imbrIXBcy4-4" value="" style="shape=xor;whiteSpace=wrap;html=1;" vertex="1" parent="1">
          <mxGeometry x="430" y="300" width="60" height="80" as="geometry" />
        </mxCell>
        <mxCell id="__-V4fkEj-imbrIXBcy4-5" value="" style="endArrow=classic;html=1;" edge="1" parent="1">
          <mxGeometry width="50" height="50" relative="1" as="geometry">
            <mxPoint x="160" y="340" as="sourcePoint" />
            <mxPoint x="420" y="340" as="targetPoint" />
          </mxGeometry>
        </mxCell>
      </root>
    </mxGraphModel>
  </diagram>
</mxfile>
